<svg id="Layer_1" enable-background="new 0 0 512 512" height="512" viewBox="0 0 512 512" width="512" xmlns="http://www.w3.org/2000/svg"><path d="m337.693 340.17c0-46.258 37.342-83.76 83.402-83.76 21.168 0 40.48 7.935 55.188 20.983v-183.332c0-3.293-2.685-5.99-5.965-5.99h-456.853c-3.281 0-5.965 2.697-5.965 5.99v300.676c0 3.295 2.684 5.99 5.965 5.99h350.045c-15.897-15.252-25.817-36.735-25.817-60.557z" fill="#3d5959"/><path d="m39 394.736v-26.382c-2.717-1.899-4.5-5.046-4.5-8.604v-27c0-3.559 1.783-6.705 4.5-8.604v-23.791c-2.717-1.899-4.5-5.046-4.5-8.604v-27c0-3.559 1.783-6.705 4.5-8.604v-23.791c-2.717-1.899-4.5-5.046-4.5-8.605v-27c0-3.559 1.783-6.705 4.5-8.605v-23.791c-2.717-1.899-4.5-5.046-4.5-8.605v-27c0-3.559 1.783-6.705 4.5-8.604v-26.085c0-3.293 2.684-5.99 5.965-5.99h-31.5c-3.281 0-5.965 2.697-5.965 5.99v300.676c0 3.295 2.684 5.99 5.965 5.99h31.5c-3.281 0-5.965-2.696-5.965-5.991z" fill="#374949"/><path d="m337.693 340.17c0-29.546 15.248-55.5 38.258-70.411v-181.689h-268.119v312.656h255.678c-15.897-15.251-25.817-36.734-25.817-60.556z" fill="#8c9ba7"/><path d="m107.832 88.07h31.049v312.656h-31.049z" fill="#798b97"/><path d="m188.948 181.75c0-2.75 1.93-3.843 4.288-2.428l112.477 67.475c2.357 1.415 2.357 3.729 0 5.145l-112.477 67.471c-2.358 1.415-4.288.322-4.288-2.428z" fill="#fd646f"/><path d="m220 195.378-26.764-16.056c-2.358-1.415-4.288-.322-4.288 2.428v135.234c0 2.75 1.93 3.843 4.288 2.428l26.764-16.055z" fill="#fc4755"/><g fill="#fff"><path d="m75 155.75c0 1.65-1.35 3-3 3h-27c-1.65 0-3-1.35-3-3v-27c0-1.65 1.35-3 3-3h27c1.65 0 3 1.35 3 3z"/><path d="m75 223.75c0 1.65-1.35 3-3 3h-27c-1.65 0-3-1.35-3-3v-27c0-1.65 1.35-3 3-3h27c1.65 0 3 1.35 3 3z"/><path d="m75 291.75c0 1.65-1.35 3-3 3h-27c-1.65 0-3-1.35-3-3v-27c0-1.65 1.35-3 3-3h27c1.65 0 3 1.35 3 3z"/><path d="m75 359.75c0 1.65-1.35 3-3 3h-27c-1.65 0-3-1.35-3-3v-27c0-1.65 1.35-3 3-3h27c1.65 0 3 1.35 3 3z"/><path d="m443 155.75c0 1.65-1.35 3-3 3h-27c-1.65 0-3-1.35-3-3v-27c0-1.65 1.35-3 3-3h27c1.65 0 3 1.35 3 3z"/><path d="m443 223.75c0 1.65-1.35 3-3 3h-27c-1.65 0-3-1.35-3-3v-27c0-1.65 1.35-3 3-3h27c1.65 0 3 1.35 3 3z"/></g><ellipse cx="421.097" cy="340.17" fill="#00c184" rx="83.403" ry="83.76"/><path d="m369 340.17c0-40.883 29.174-74.905 67.75-82.266-5.073-.967-10.301-1.494-15.654-1.494-46.061 0-83.402 37.502-83.402 83.76 0 46.26 37.342 83.76 83.402 83.76 5.353 0 10.581-.526 15.654-1.494-38.576-7.361-67.75-41.382-67.75-82.266z" fill="#07b17b"/><path d="m411.596 392.17c-2.209 0-4-1.791-4-4v-53.816h-18.816c-1.577 0-3.007-.928-3.651-2.367-.643-1.438-.383-3.121.668-4.299l32.315-36.178c.759-.85 1.844-1.336 2.983-1.336 1.14 0 2.225.486 2.983 1.336l32.315 36.178c1.051 1.178 1.312 2.861.668 4.299-.645 1.44-2.074 2.367-3.651 2.367h-18.815v53.816c0 2.209-1.791 4-4 4z" fill="#fff"/><path d="m309.571 240.365-112.477-67.475c-1.841-1.104-3.849-1.688-5.808-1.688-5.609 0-9.839 4.534-9.839 10.547v135.234c0 6.013 4.23 10.547 9.839 10.547 1.959 0 3.967-.583 5.808-1.688l112.479-67.472c3.386-2.033 5.407-5.398 5.407-9.003 0-3.602-2.021-6.968-5.409-9.002zm-113.123 68.374v-118.744l98.974 59.374z"/><path d="m82.5 128.75c0-5.79-4.71-10.5-10.5-10.5h-27c-5.79 0-10.5 4.71-10.5 10.5v27c0 5.79 4.71 10.5 10.5 10.5h27c5.79 0 10.5-4.71 10.5-10.5zm-15 22.5h-18v-18h18z"/><path d="m82.5 196.75c0-5.79-4.71-10.5-10.5-10.5h-27c-5.79 0-10.5 4.71-10.5 10.5v27c0 5.79 4.71 10.5 10.5 10.5h27c5.79 0 10.5-4.71 10.5-10.5zm-15 22.5h-18v-18h18z"/><path d="m82.5 264.75c0-5.79-4.71-10.5-10.5-10.5h-27c-5.79 0-10.5 4.71-10.5 10.5v27c0 5.79 4.71 10.5 10.5 10.5h27c5.79 0 10.5-4.71 10.5-10.5zm-15 22.5h-18v-18h18z"/><path d="m72 322.25h-27c-5.79 0-10.5 4.71-10.5 10.5v27c0 5.79 4.71 10.5 10.5 10.5h27c5.79 0 10.5-4.71 10.5-10.5v-27c0-5.79-4.71-10.5-10.5-10.5zm-4.5 33h-18v-18h18z"/><path d="m413 166.25h27c5.79 0 10.5-4.71 10.5-10.5v-27c0-5.79-4.71-10.5-10.5-10.5h-27c-5.79 0-10.5 4.71-10.5 10.5v27c0 5.79 4.71 10.5 10.5 10.5zm4.5-33h18v18h-18z"/><path d="m413 234.25h27c5.79 0 10.5-4.71 10.5-10.5v-27c0-5.79-4.71-10.5-10.5-10.5h-27c-5.79 0-10.5 4.71-10.5 10.5v27c0 5.79 4.71 10.5 10.5 10.5zm4.5-33h18v18h-18z"/><path d="m483.783 274.139v-180.078c0-7.438-6.04-13.49-13.465-13.49h-386.318c-4.143 0-7.5 3.357-7.5 7.5s3.357 7.5 7.5 7.5h16.332v297.656h-85.332v-297.657h34c4.143 0 7.5-3.357 7.5-7.5s-3.357-7.5-7.5-7.5h-35.535c-7.425 0-13.465 6.052-13.465 13.491v300.676c0 7.439 6.04 13.49 13.465 13.49h347.14c16.081 14.422 37.282 23.203 60.491 23.203 19.302 0 37.739-5.996 53.319-17.339 3.348-2.438 4.086-7.13 1.648-10.478-2.44-3.349-7.129-4.085-10.479-1.648-12.997 9.464-28.381 14.466-44.489 14.466-41.853 0-75.902-34.21-75.902-76.26s34.05-76.26 75.902-76.26c41.853 0 75.904 34.21 75.904 76.26 0 13.396-3.503 26.567-10.132 38.092-2.064 3.591-.828 8.176 2.763 10.241 3.592 2.065 8.176.827 10.241-2.763 7.935-13.798 12.129-29.556 12.129-45.571 0-25.947-10.842-49.399-28.217-66.031zm-15-11.631c-13.873-8.616-30.21-13.598-47.688-13.598-13.42 0-26.168 2.938-37.645 8.2v-98.11c0-4.143-3.357-7.5-7.5-7.5s-7.5 3.357-7.5 7.5v106.811c-23.14 16.56-38.258 43.72-38.258 74.358 0 19.773 6.299 38.096 16.984 53.057h-231.844v-297.656h253.119v27.43c0 4.143 3.357 7.5 7.5 7.5s7.5-3.357 7.5-7.5v-27.43h85.332z"/><path d="m411.596 399.67h19c6.341 0 11.5-5.159 11.5-11.5v-46.316h11.315c4.526 0 8.646-2.67 10.497-6.803 1.849-4.129 1.096-8.98-1.92-12.359l-32.315-36.178c-2.18-2.44-5.306-3.84-8.577-3.84-3.272 0-6.397 1.399-8.577 3.84l-32.319 36.18c-3.013 3.377-3.766 8.228-1.916 12.357 1.85 4.132 5.97 6.802 10.496 6.802h11.315v46.316c.001 6.342 5.16 11.501 11.501 11.501zm-14.997-72.817 24.497-27.426 24.497 27.426h-10.997c-4.143 0-7.5 3.357-7.5 7.5v50.316h-12v-50.316c0-4.143-3.357-7.5-7.5-7.5z"/></svg>